<svg id="svg" version="1.1" xmlns="http://www.w3.org/2000/svg" xmlns:xlink="http://www.w3.org/1999/xlink" width="400" height="400" viewBox="0, 0, 400,400"><g id="svgg"><path id="path0" d="M51.499 95.457 C 50.834 95.649,50.804 100.894,50.899 200.329 L 51.000 305.000 63.900 305.106 L 76.800 305.211 76.800 260.806 L 76.800 216.400 93.745 216.400 L 110.691 216.400 111.809 218.900 C 112.423 220.275,113.419 222.480,114.020 223.800 C 114.622 225.120,115.511 227.100,115.995 228.200 C 116.479 229.300,117.309 231.145,117.838 232.300 C 121.079 239.374,121.082 239.380,126.200 250.800 C 128.024 254.870,129.965 259.190,130.513 260.400 C 131.062 261.610,131.909 263.500,132.397 264.600 C 132.884 265.700,133.786 267.680,134.400 269.000 C 135.014 270.320,135.916 272.300,136.403 273.400 C 136.891 274.500,137.738 276.390,138.286 277.600 C 138.834 278.810,140.429 282.359,141.831 285.487 C 143.233 288.614,145.104 292.727,145.990 294.626 C 146.875 296.526,147.600 298.134,147.600 298.200 C 147.600 298.266,148.322 299.868,149.204 301.760 L 150.808 305.200 166.028 305.200 C 174.398 305.200,181.170 305.065,181.075 304.900 C 180.980 304.735,180.358 303.430,179.693 302.000 C 179.028 300.570,177.367 297.060,176.001 294.200 C 174.635 291.340,172.749 287.380,171.810 285.400 C 169.999 281.582,167.688 276.767,161.944 264.844 C 159.995 260.797,158.400 257.427,158.400 257.353 C 158.400 257.279,157.072 254.469,155.448 251.109 C 147.282 234.208,146.020 231.573,141.212 221.400 C 140.173 219.200,138.911 216.538,138.410 215.485 C 137.337 213.232,137.224 213.412,140.451 212.234 C 167.271 202.444,182.030 175.923,177.644 145.400 C 173.762 118.382,154.274 99.729,126.000 95.967 C 122.578 95.512,52.966 95.036,51.499 95.457 M224.500 95.445 C 224.102 95.621,224.000 117.009,224.000 200.454 L 224.000 305.242 261.100 305.067 C 299.493 304.885,298.574 304.922,306.610 303.268 C 308.536 302.872,314.127 301.141,315.800 300.423 C 319.591 298.796,320.964 298.119,323.400 296.673 C 336.321 289.008,345.387 276.000,347.984 261.400 C 348.258 259.860,348.643 257.736,348.841 256.680 C 349.310 254.175,349.306 239.242,348.836 237.077 C 348.636 236.155,348.250 234.140,347.979 232.600 C 344.996 215.662,331.806 200.152,316.495 195.580 C 314.172 194.886,313.570 194.120,315.065 193.760 C 332.255 189.620,344.387 171.266,344.386 149.400 C 344.385 118.993,326.470 99.955,294.092 95.956 C 290.465 95.508,225.434 95.030,224.500 95.445 M122.869 119.232 C 139.111 122.525,148.167 131.931,151.165 148.624 C 153.605 162.212,148.497 177.647,139.081 185.134 C 130.206 192.192,126.985 192.797,98.300 192.799 L 76.800 192.800 76.800 155.800 L 76.800 118.800 98.769 118.800 C 112.918 118.800,121.497 118.954,122.869 119.232 M292.600 119.501 C 303.725 121.774,312.004 127.952,315.975 136.945 C 317.052 139.383,317.514 140.849,318.359 144.506 C 318.884 146.773,318.949 156.987,318.450 158.640 C 318.257 159.278,317.877 160.790,317.606 162.000 C 315.607 170.899,307.524 179.327,297.891 182.557 C 292.138 184.485,290.922 184.573,269.600 184.587 L 249.400 184.600 249.298 151.683 L 249.195 118.766 269.898 118.929 C 281.703 119.022,291.460 119.268,292.600 119.501 M291.426 207.794 C 306.621 209.676,317.809 218.903,321.986 233.000 C 325.371 244.426,323.388 260.418,317.720 267.400 C 314.860 270.923,313.996 271.825,311.800 273.584 C 307.490 277.035,303.842 278.824,298.000 280.348 C 292.242 281.850,289.631 282.000,269.193 282.000 L 249.200 282.000 249.200 244.600 L 249.200 207.200 267.912 207.200 C 282.047 207.200,287.798 207.345,291.426 207.794 " stroke="none" fill="#faf9fc" fill-rule="evenodd"></path><path id="path1" d="M30.400 0.291 C 29.630 0.382,28.829 0.624,28.620 0.829 C 28.411 1.033,27.837 1.200,27.344 1.200 C 26.851 1.200,26.336 1.380,26.200 1.600 C 26.064 1.820,25.513 2.000,24.976 2.000 C 24.439 2.000,24.000 2.180,24.000 2.400 C 24.000 2.620,23.640 2.800,23.200 2.800 C 22.760 2.800,22.400 2.980,22.400 3.200 C 22.400 3.420,22.040 3.600,21.600 3.600 C 21.160 3.600,20.800 3.780,20.800 4.000 C 20.800 4.220,20.440 4.400,20.000 4.400 C 19.560 4.400,19.200 4.580,19.200 4.800 C 19.200 5.020,18.912 5.200,18.560 5.200 C 18.209 5.200,17.417 5.740,16.800 6.400 C 16.183 7.060,15.476 7.600,15.229 7.600 C 14.244 7.600,7.600 14.244,7.600 15.229 C 7.600 15.476,7.060 16.183,6.400 16.800 C 5.740 17.417,5.200 18.209,5.200 18.560 C 5.200 18.912,5.020 19.200,4.800 19.200 C 4.580 19.200,4.400 19.560,4.400 20.000 C 4.400 20.440,4.220 20.800,4.000 20.800 C 3.780 20.800,3.600 21.160,3.600 21.600 C 3.600 22.040,3.420 22.400,3.200 22.400 C 2.980 22.400,2.800 22.760,2.800 23.200 C 2.800 23.640,2.620 24.000,2.400 24.000 C 2.180 24.000,2.000 24.439,2.000 24.976 C 2.000 25.513,1.820 26.064,1.600 26.200 C 1.380 26.336,1.200 26.851,1.200 27.344 C 1.200 27.837,0.975 28.465,0.700 28.740 C -0.036 29.476,-0.036 370.524,0.700 371.260 C 0.975 371.535,1.200 372.163,1.200 372.656 C 1.200 373.149,1.380 373.664,1.600 373.800 C 1.820 373.936,2.000 374.487,2.000 375.024 C 2.000 375.561,2.180 376.000,2.400 376.000 C 2.620 376.000,2.800 376.360,2.800 376.800 C 2.800 377.240,2.980 377.600,3.200 377.600 C 3.420 377.600,3.600 377.960,3.600 378.400 C 3.600 378.840,3.780 379.200,4.000 379.200 C 4.220 379.200,4.400 379.560,4.400 380.000 C 4.400 380.440,4.580 380.800,4.800 380.800 C 5.020 380.800,5.200 381.088,5.200 381.440 C 5.200 381.791,5.740 382.583,6.400 383.200 C 7.060 383.817,7.600 384.524,7.600 384.771 C 7.600 385.756,14.244 392.400,15.229 392.400 C 15.476 392.400,16.183 392.940,16.800 393.600 C 17.417 394.260,18.209 394.800,18.560 394.800 C 18.912 394.800,19.200 394.980,19.200 395.200 C 19.200 395.420,19.560 395.600,20.000 395.600 C 20.440 395.600,20.800 395.780,20.800 396.000 C 20.800 396.220,21.160 396.400,21.600 396.400 C 22.040 396.400,22.400 396.580,22.400 396.800 C 22.400 397.020,22.760 397.200,23.200 397.200 C 23.640 397.200,24.000 397.380,24.000 397.600 C 24.000 397.820,24.439 398.000,24.976 398.000 C 25.513 398.000,26.064 398.180,26.200 398.400 C 26.336 398.620,26.851 398.800,27.344 398.800 C 27.837 398.800,28.465 399.025,28.740 399.300 C 29.476 400.036,370.524 400.036,371.260 399.300 C 371.535 399.025,372.163 398.800,372.656 398.800 C 373.149 398.800,373.664 398.620,373.800 398.400 C 373.936 398.180,374.487 398.000,375.024 398.000 C 375.561 398.000,376.000 397.820,376.000 397.600 C 376.000 397.380,376.360 397.200,376.800 397.200 C 377.240 397.200,377.600 397.020,377.600 396.800 C 377.600 396.580,377.960 396.400,378.400 396.400 C 378.840 396.400,379.200 396.220,379.200 396.000 C 379.200 395.780,379.560 395.600,380.000 395.600 C 380.440 395.600,380.800 395.420,380.800 395.200 C 380.800 394.980,381.088 394.800,381.440 394.800 C 381.791 394.800,382.583 394.260,383.200 393.600 C 383.817 392.940,384.524 392.400,384.771 392.400 C 385.192 392.400,387.036 390.887,388.962 388.962 C 390.887 387.036,392.400 385.192,392.400 384.771 C 392.400 384.524,392.940 383.817,393.600 383.200 C 394.260 382.583,394.800 381.791,394.800 381.440 C 394.800 381.088,394.980 380.800,395.200 380.800 C 395.420 380.800,395.600 380.440,395.600 380.000 C 395.600 379.560,395.780 379.200,396.000 379.200 C 396.220 379.200,396.400 378.840,396.400 378.400 C 396.400 377.960,396.580 377.600,396.800 377.600 C 397.020 377.600,397.200 377.240,397.200 376.800 C 397.200 376.360,397.380 376.000,397.600 376.000 C 397.820 376.000,398.000 375.561,398.000 375.024 C 398.000 374.487,398.180 373.936,398.400 373.800 C 398.620 373.664,398.800 373.149,398.800 372.656 C 398.800 372.163,399.025 371.535,399.300 371.260 C 400.036 370.524,400.036 29.476,399.300 28.740 C 399.025 28.465,398.800 27.837,398.800 27.344 C 398.800 26.851,398.620 26.336,398.400 26.200 C 398.180 26.064,398.000 25.513,398.000 24.976 C 398.000 24.439,397.820 24.000,397.600 24.000 C 397.380 24.000,397.200 23.640,397.200 23.200 C 397.200 22.760,397.020 22.400,396.800 22.400 C 396.580 22.400,396.400 22.040,396.400 21.600 C 396.400 21.160,396.220 20.800,396.000 20.800 C 395.780 20.800,395.600 20.440,395.600 20.000 C 395.600 19.560,395.420 19.200,395.200 19.200 C 394.980 19.200,394.800 18.912,394.800 18.560 C 394.800 18.209,394.260 17.417,393.600 16.800 C 392.940 16.183,392.400 15.476,392.400 15.229 C 392.400 14.244,385.756 7.600,384.771 7.600 C 384.524 7.600,383.817 7.060,383.200 6.400 C 382.583 5.740,381.791 5.200,381.440 5.200 C 381.088 5.200,380.800 5.020,380.800 4.800 C 380.800 4.580,380.440 4.400,380.000 4.400 C 379.560 4.400,379.200 4.220,379.200 4.000 C 379.200 3.780,378.840 3.600,378.400 3.600 C 377.960 3.600,377.600 3.420,377.600 3.200 C 377.600 2.980,377.240 2.800,376.800 2.800 C 376.360 2.800,376.000 2.620,376.000 2.400 C 376.000 2.180,375.561 2.000,375.024 2.000 C 374.487 2.000,373.936 1.820,373.800 1.600 C 373.664 1.380,373.149 1.200,372.656 1.200 C 372.163 1.200,371.535 0.975,371.260 0.700 C 370.782 0.222,34.383 -0.182,30.400 0.291 M126.000 95.967 C 154.274 99.729,173.762 118.382,177.644 145.400 C 182.030 175.923,167.271 202.444,140.451 212.234 C 137.224 213.412,137.337 213.232,138.410 215.485 C 138.911 216.538,140.173 219.200,141.212 221.400 C 146.020 231.573,147.282 234.208,155.448 251.109 C 157.072 254.469,158.400 257.279,158.400 257.353 C 158.400 257.427,159.995 260.797,161.944 264.844 C 167.688 276.767,169.999 281.582,171.810 285.400 C 172.749 287.380,174.635 291.340,176.001 294.200 C 177.367 297.060,179.028 300.570,179.693 302.000 C 180.358 303.430,180.980 304.735,181.075 304.900 C 181.170 305.065,174.398 305.200,166.028 305.200 L 150.808 305.200 149.204 301.760 C 148.322 299.868,147.600 298.266,147.600 298.200 C 147.600 298.134,146.875 296.526,145.990 294.626 C 145.104 292.727,143.233 288.614,141.831 285.487 C 140.429 282.359,138.834 278.810,138.286 277.600 C 137.738 276.390,136.891 274.500,136.403 273.400 C 135.916 272.300,135.014 270.320,134.400 269.000 C 133.786 267.680,132.884 265.700,132.397 264.600 C 131.909 263.500,131.062 261.610,130.513 260.400 C 129.965 259.190,128.024 254.870,126.200 250.800 C 121.082 239.380,121.079 239.374,117.838 232.300 C 117.309 231.145,116.479 229.300,115.995 228.200 C 115.511 227.100,114.622 225.120,114.020 223.800 C 113.419 222.480,112.423 220.275,111.809 218.900 L 110.691 216.400 93.745 216.400 L 76.800 216.400 76.800 260.806 L 76.800 305.211 63.900 305.106 L 51.000 305.000 50.899 200.329 C 50.804 100.894,50.834 95.649,51.499 95.457 C 52.966 95.036,122.578 95.512,126.000 95.967 M294.092 95.956 C 326.470 99.955,344.385 118.993,344.386 149.400 C 344.386 162.045,341.488 171.576,335.112 179.899 C 330.655 185.718,321.139 192.297,315.065 193.760 C 313.570 194.120,314.172 194.886,316.495 195.580 C 331.806 200.152,344.996 215.662,347.979 232.600 C 348.250 234.140,348.636 236.155,348.836 237.077 C 349.306 239.242,349.310 254.175,348.841 256.680 C 348.643 257.736,348.258 259.860,347.984 261.400 C 345.387 276.000,336.321 289.008,323.400 296.673 C 320.964 298.119,319.591 298.796,315.800 300.423 C 314.127 301.141,308.536 302.872,306.610 303.268 C 298.574 304.922,299.493 304.885,261.100 305.067 L 224.000 305.242 224.000 200.454 C 224.000 117.009,224.102 95.621,224.500 95.445 C 225.434 95.030,290.465 95.508,294.092 95.956 M76.800 155.800 L 76.800 192.800 98.300 192.799 C 115.678 192.798,120.462 192.682,123.253 192.193 C 140.768 189.130,151.600 175.223,151.600 155.800 C 151.600 147.305,150.118 141.577,145.983 134.087 C 142.610 127.977,134.520 122.130,126.600 120.078 C 122.015 118.891,120.037 118.800,98.769 118.800 L 76.800 118.800 76.800 155.800 M249.298 151.683 L 249.400 184.600 269.600 184.587 C 290.922 184.573,292.138 184.485,297.891 182.557 C 307.524 179.327,315.607 170.899,317.606 162.000 C 317.877 160.790,318.257 159.278,318.450 158.640 C 318.949 156.987,318.884 146.773,318.359 144.506 C 317.514 140.849,317.052 139.383,315.975 136.945 C 312.004 127.952,303.725 121.774,292.600 119.501 C 291.460 119.268,281.703 119.022,269.898 118.929 L 249.195 118.766 249.298 151.683 M249.200 244.600 L 249.200 282.000 269.193 282.000 C 292.210 282.000,295.628 281.669,303.200 278.704 C 307.504 277.018,312.853 273.282,315.473 270.131 C 318.324 266.702,318.743 266.102,319.902 263.800 C 327.063 249.574,324.027 228.827,313.200 218.000 C 303.908 208.708,297.585 207.200,267.912 207.200 L 249.200 207.200 249.200 244.600 " stroke="none" fill="#9444fb" fill-rule="evenodd"></path></g></svg>